<?xml version="1.0" encoding="UTF-8"?>
<svg width="65px" height="70px" viewBox="0 0 65 70" version="1.1" xmlns="http://www.w3.org/2000/svg" xmlns:xlink="http://www.w3.org/1999/xlink">
    <!-- Generator: Sketch 60.1 (88133) - https://sketch.com -->
    <title>Group 18</title>
    <desc>Created with Sketch.</desc>
    <defs>
        <polygon id="path-1" points="0 0.055203252 64.8231828 0.055203252 64.8231828 39.0713821 0 39.0713821"></polygon>
    </defs>
    <g id="MobileFIN" stroke="none" stroke-width="1" fill="none" fill-rule="evenodd">
        <g id="about" transform="translate(-155.000000, -884.000000)">
            <g id="Group-4" transform="translate(92.000000, 884.000000)">
                <g id="Group-18" transform="translate(63.000000, 0.000000)">
                    <path d="M46.3759251,30.7037358 C46.3759251,38.4136951 40.086674,44.6636138 32.3281938,44.6636138 C24.57,44.6636138 18.2804626,38.4136951 18.2804626,30.7037358 C18.2804626,22.9937764 24.57,16.7438577 32.3281938,16.7438577 C40.086674,16.7438577 46.3759251,22.9937764 46.3759251,30.7037358 M49.7882819,30.7037358 C49.7882819,21.1211341 41.9711013,13.3528415 32.3281938,13.3528415 C22.6852863,13.3528415 14.8683921,21.1211341 14.8683921,30.7037358 C14.8683921,40.286622 22.6852863,48.0546301 32.3281938,48.0546301 C41.9711013,48.0546301 49.7882819,40.286622 49.7882819,30.7037358" id="Fill-1" fill="#000000"></path>
                    <path d="M39.3577004,22.4245854 L34.5671718,22.4245854 C29.1151894,22.4245854 23.568141,26.2771463 23.568141,32.0709268 C23.568141,37.7710894 28.4534493,38.711252 33.1486256,38.711252 C35.733163,38.711252 36.7413789,38.6796667 36.7413789,38.6796667 L37.4354758,35.3597886 L34.3469736,35.3597886 C32.0771278,35.3597886 30.375674,33.9814146 30.375674,31.6637317 C30.375674,30.3801138 30.6909383,29.4402358 31.1631189,28.2195041 C31.6049471,27.0596667 32.9278546,25.5256423 34.3149031,25.5256423 L38.4749031,25.5256423 L39.3577004,22.4245854 Z" id="Fill-3" fill="#000000"></path>
                    <g id="Group-7" transform="translate(0.000000, 0.229350)">
                        <mask id="mask-2" fill="white">
                            <use xlink:href="#path-1"></use>
                        </mask>
                        <g id="Clip-6"></g>
                        <path d="M1.89029736,29.4742683 C1.89029736,29.4742683 1.89316079,29.4762602 1.89029736,33.7405691 C1.29727974,33.7405691 -0.000143171806,33.4489024 -0.000143171806,31.5281707 L-0.000143171806,27.4203659 C-0.000143171806,25.4987805 1.29727974,25.2068293 1.89029736,25.2068293 L1.89029736,29.4742683 Z M11.3425,29.4705691 L11.3425,39.0713821 C6.59606828,39.0713821 2.89393172,37.2112602 2.89393172,32.8894715 L2.89393172,26.0522358 C2.89393172,22.284187 5.70954846,20.3867886 9.57604626,19.9628049 C12.0374559,9.24199187 21.3556498,0.055203252 32.4468833,0.055203252 C43.5372577,0.055203252 52.793315,9.24113821 55.2369714,19.9619512 C59.1089097,20.3842276 61.9293943,22.2813415 61.9293943,26.0522358 L61.9293943,32.8897561 C61.9293943,37.2112602 58.2269714,39.0713821 53.480826,39.0713821 L53.480826,29.4705691 L53.4796806,19.9292276 C49.6707379,11.622561 41.6972137,5.29211382 32.4468833,5.29211382 C23.1939758,5.29211382 15.1769273,11.6262602 11.343359,19.9377642 L11.3425,29.4705691 Z M62.9330286,29.4742683 L62.9330286,25.2068293 C63.5257599,25.2068293 64.8231828,25.4987805 64.8231828,27.4203659 L64.8231828,31.5281707 C64.8231828,33.4489024 63.5257599,33.7405691 62.9330286,33.7405691 C62.9298789,29.4762602 62.9330286,29.4742683 62.9330286,29.4742683 L62.9330286,29.4742683 Z" id="Fill-5" fill="#000000" mask="url(#mask-2)"></path>
                    </g>
                    <path d="M17.1183943,67.9462398 L17.1183943,57.9535976 L7.54249119,57.9535976 L7.54249119,60.6719309 L8.40352643,60.6719309 L8.40352643,67.9462398 L17.1183943,67.9462398 Z M11.6306189,65.2279065 L13.8901564,65.2279065 L13.8901564,60.6716463 L11.6306189,60.6716463 L11.6306189,65.2279065 Z" id="Fill-8" fill="#000000"></path>
                    <path d="M26.740685,59.8139756 L26.740685,56.8162114 L23.5127335,56.8162114 L23.5127335,62.0724715 L26.740685,59.8139756 Z M22.4372269,59.8139756 L22.4372269,56.8162114 L19.208989,56.8162114 L19.208989,62.0724715 L22.4372269,59.8139756 Z" id="Fill-10" fill="#000000"></path>
                    <polygon id="Fill-12" fill="#000000" points="33.2866145 67.9459553 33.2866145 57.953313 28.5522093 57.953313 28.5522093 60.6716463 30.0583767 60.6716463 30.0583767 67.9459553"></polygon>
                    <path d="M45.235304,64.7091667 L45.235304,57.9535976 L35.552022,57.9535976 L35.552022,60.691565 L42.0073524,60.691565 L42.0073524,64.7487195 C42.0073524,65.0085163 41.7699736,65.2279065 41.4690264,65.2279065 L40.0055242,65.2279065 L40.0055242,67.9462398 L41.4690264,67.9462398 C43.5567577,67.9462398 45.235304,66.5078252 45.235304,64.7091667 L45.235304,64.7091667 Z M35.552022,69.9446545 L38.7794009,69.9446545 L38.7794009,62.4298984 L35.552022,62.4298984 L35.552022,69.9446545 Z" id="Fill-14" fill="#000000"></path>
                    <polygon id="Fill-16" fill="#000000" points="57.2972423 67.9459553 54.9956123 64.4687195 56.8883436 63.1099797 56.8883436 57.953313 53.6612511 57.953313 53.6612511 61.8303455 53.3809207 62.0301016 50.7127709 57.953313 47.0329692 57.953313 49.3360308 61.4513211 47.4203921 62.7901423 47.4203921 67.9459553 50.6483436 67.9459553 50.6483436 64.0689228 50.927815 63.8691667 53.5959648 67.9459553"></polygon>
                </g>
            </g>
        </g>
    </g>
</svg>