<?xml version="1.0" encoding="UTF-8"?>
<svg width="18px" height="22px" viewBox="0 0 18 22" version="1.1" xmlns="http://www.w3.org/2000/svg" xmlns:xlink="http://www.w3.org/1999/xlink">
    <!-- Generator: Sketch 60.1 (88133) - https://sketch.com -->
    <title>like copy 4</title>
    <desc>Created with Sketch.</desc>
    <g id="MobileFIN" stroke="none" stroke-width="1" fill="none" fill-rule="evenodd">
        <g id="menu" transform="translate(-311.000000, -155.000000)">
            <g id="like" transform="translate(312.000000, 161.000000)">
                <g id="Group-4" transform="translate(0.000000, -4.000000)">
                    <path d="M12.1288667,7.9135 C12.1288667,3.54283333 7.89053333,9.76996262e-15 7.89053333,9.76996262e-15 C7.89053333,9.76996262e-15 3.6522,3.54283333 3.6522,7.9135 L7.89053333,13.3885 L12.1288667,7.9135 Z" id="Fill-1" fill="#FEFEFE"></path>
                    <path d="M12.1288667,7.9135 C12.1288667,3.54283333 7.89053333,9.76996262e-15 7.89053333,9.76996262e-15 C7.89053333,9.76996262e-15 3.6522,3.54283333 3.6522,7.9135 L7.89053333,13.3885 L12.1288667,7.9135 Z" id="Stroke-3" stroke="#F87A64" stroke-width="2"></path>
                    <path d="M7.8905,10.8109667 C7.95783333,6.50946667 11.4635,3.0428 15.781,3.0428 L15.781,7.98113333 C15.781,12.3386333 12.2546667,15.8748 7.89366667,15.8748 C3.53266667,15.8748 -2.66453526e-14,12.3386333 -2.66453526e-14,7.98113333 L-2.66453526e-14,3.0428 C4.3175,3.0428 7.82316667,6.50946667 7.8905,10.8109667 L7.89366667,15.8748" id="Fill-5" fill="#FEFEFE"></path>
                    <path d="M7.8905,9.76816667 C7.95783333,5.46666667 11.4635,2 15.781,2 L15.781,6.93833333 C15.781,11.2958333 12.2546667,14.832 7.89366667,14.832 C3.53266667,14.832 0,11.2958333 0,6.93833333 L0,2 C4.3175,2 7.82316667,5.46666667 7.8905,9.76816667 L7.89366667,19.832" id="Stroke-7" stroke="#F87A64" stroke-width="2"></path>
                </g>
            </g>
        </g>
    </g>
</svg>