<?xml version="1.0" encoding="UTF-8"?>
<svg width="180px" height="166px" viewBox="0 0 180 166" version="1.1" xmlns="http://www.w3.org/2000/svg" xmlns:xlink="http://www.w3.org/1999/xlink">
    <!-- Generator: Sketch 60.1 (88133) - https://sketch.com -->
    <title>Fill 5</title>
    <desc>Created with Sketch.</desc>
    <g id="MobileFIN" stroke="none" stroke-width="1" fill="none" fill-rule="evenodd">
        <g id="open_screen" transform="translate(-98.000000, -136.000000)" fill="#2F5344">
            <g id="Group-3" transform="translate(88.000000, 136.000000)">
                <path d="M26.7246542,93.6186469 C26.3837173,93.9850359 26.0448972,94.353389 25.7078913,94.7235552 C26.0352209,94.343115 26.374797,93.975064 26.7246542,93.6186469 M29.8780556,90.8661213 C29.3788213,91.2539648 28.8863905,91.6502693 28.4007633,92.0551857 C28.8814012,91.6436214 29.3750415,91.2483745 29.8780556,90.8661213 M33.749768,88.3184713 C33.0999468,88.7100921 32.4522424,89.1051878 31.806957,89.5040608 C32.4428685,89.0890214 33.0913289,88.69453 33.749768,88.3184713 M96.8289848,101.996188 C96.9913644,101.92714 97.1548025,101.862475 97.3189965,101.800377 C97.1555584,101.864892 96.9922716,101.930313 96.8289848,101.996188 M92.7270078,104.772434 C93.2129373,104.280944 93.7393861,103.828586 94.3034817,103.420043 C93.7501207,103.830248 93.2277541,104.285628 92.7270078,104.772434 M63.9348516,112.343013 C63.6298983,112.640505 63.3465654,112.957791 63.0931684,113.298193 C63.3978193,112.878621 63.7585623,112.486395 64.1719199,112.12182 C64.0917884,112.19404 64.0124128,112.267318 63.9348516,112.343013 M22.5821579,114.011782 C22.4832786,114.11135 22.3837946,114.210161 22.2858225,114.310786 C22.2415234,114.356264 22.1972243,114.402043 22.152774,114.44737 C22.2947428,114.301267 22.43777,114.156072 22.5821579,114.011782 M27.9523293,109.366725 C27.9084838,109.399512 27.8653942,109.433355 27.821851,109.466293 C27.8650918,109.432902 27.9087862,109.399814 27.9523293,109.366725 M28.7203822,108.803468 C28.5499894,108.926908 28.3786894,109.049289 28.2095061,109.174692 C28.3786894,109.049289 28.548931,108.925548 28.7203822,108.803468 M32.2824543,106.410231 C32.0340466,106.564794 31.7847318,106.717846 31.5384409,106.875885 C31.5027597,106.898699 31.4678344,106.922873 31.432002,106.945839 C31.5192395,106.885554 31.6067794,106.825723 31.6937145,106.764835 C31.8899611,106.646835 32.0860565,106.528533 32.2824543,106.410231 M39.7826118,102.398385 C39.3388647,102.605527 38.8955712,102.813575 38.4539408,103.02525 C38.894664,102.81146 39.3378064,102.602958 39.7826118,102.398385 M25.8457779,95.4203742 C25.8607459,95.409798 25.8828199,95.409798 25.9023236,95.4060208 C25.9039867,95.4614702 25.8823663,95.4832269 25.8386719,95.4650963 C25.8348921,95.4634343 25.8367064,95.4267199 25.8457779,95.4203742 M32.7901554,97.341159 C32.6699582,97.4162498 32.5497609,97.4914918 32.4295637,97.5667337 C32.5496097,97.4911896 32.6696558,97.4157966 32.7901554,97.341159 M29.5092995,99.5384353 C29.4932732,99.5508245 29.4766422,99.5627605 29.4604647,99.5751497 C29.1354029,99.8267117 28.8074685,100.074496 28.4759055,100.317295 C28.3795965,100.387853 28.2846483,100.459922 28.1892464,100.531387 C28.6237708,100.193554 29.0634358,99.8617641 29.5092995,99.5384353 M91.2737549,106.536238 C91.2451797,106.578543 91.2164533,106.620999 91.1883317,106.663455 C91.2164533,106.620999 91.2450285,106.578392 91.2737549,106.536238 M27.3747777,93.6467493 C27.4908928,93.5240656 27.6104853,93.4037994 27.7361254,93.2910876 C28.0599777,93.000696 28.388668,92.7158946 28.7141834,92.4273161 C29.2026831,91.9941461 29.7232355,91.601921 30.2397057,91.202897 C30.8905852,90.6997731 31.5710982,90.2409181 32.2566006,89.7888621 C32.7200026,89.4833617 33.2027571,89.2068702 33.6761377,88.9161764 C34.5004338,88.4098797 35.3758327,87.9978621 36.2249243,87.5374962 C36.4579104,87.4110354 36.7032942,87.3070866 36.9448983,87.1966411 C37.9993079,86.7148207 39.0727676,86.2781757 40.1497048,85.8499916 C40.4188257,85.7431722 40.6955062,85.6552389 40.97007,85.5626218 C42.3660212,85.0915287 43.7733118,84.6598696 45.2106896,84.3300439 C46.1055922,84.1248661 47.0083567,83.9622951 47.9132379,83.8092427 C49.8890086,83.4751866 51.7519905,83.3310485 53.6863347,83.3683673 C53.7572435,83.3697271 53.8281524,83.3851381 53.8972469,83.3937501 C53.8993636,83.4232123 53.9097958,83.453581 53.9008755,83.4609843 C53.8287571,83.5212686 53.7587555,83.5877474 53.6774144,83.6326206 C52.7255126,84.1568968 51.7782978,84.687972 50.7969137,85.1596695 C49.7955723,85.6408855 48.7890904,86.1107699 47.780643,86.5764239 C47.1229599,86.8799602 46.4565077,87.1652148 45.7885435,87.4459367 C44.586571,87.9510247 43.3830865,88.4524866 42.1939653,88.9883966 C41.4020241,89.3455692 40.5901257,89.6581708 39.7863916,89.989054 C38.7814216,90.4027336 37.7766028,90.8164132 36.7702721,91.2264667 C35.7417162,91.6457366 34.711346,92.0604738 33.681883,92.4774774 C32.8315819,92.8222608 31.9817344,93.1681017 31.1312821,93.5121297 C30.9300462,93.5937173 30.7266936,93.670168 30.5242482,93.7491871 C29.5348509,94.1353687 28.5472679,94.526385 27.5551492,94.9054654 C27.1041449,95.077706 26.6452787,95.230003 26.186866,95.3822999 C26.1000821,95.4110067 25.9993885,95.397862 25.9048938,95.4036034 C25.9236416,95.3365202 25.9246999,95.2546304 25.9655216,95.206131 C26.1827838,94.9468636 26.4074544,94.6937908 26.6346953,94.4432865 C26.8782648,94.1749538 27.1257653,93.9100961 27.3747777,93.6467493 M30.5735366,110.403795 C30.5555448,110.412558 30.5380066,110.422077 30.520166,110.43084 C29.5439224,110.912811 28.6208982,111.489969 27.6570523,111.993697 C27.2929831,112.183917 26.935264,112.388188 26.5875235,112.606511 C26.3276253,112.769686 26.0671223,112.931804 25.8066193,113.094072 C25.1190003,113.511227 24.4372778,113.940318 23.7613005,114.382251 C23.2337933,114.722804 22.7108219,115.070307 22.1964683,115.431407 C22.1901183,115.43594 22.1837682,115.440775 22.1774182,115.445459 C22.0860985,115.508311 21.9941741,115.569502 21.9031568,115.632808 C21.8435873,115.66363 21.7794821,115.685387 21.7079685,115.693092 C21.9731585,115.322171 22.3086524,115.014706 22.6246427,114.691226 C23.8586679,113.427222 25.159822,112.234531 26.5225112,111.111039 C27.2683389,110.49611 28.0279251,109.895988 28.8050495,109.321248 C29.4457991,108.847435 30.1213228,108.420762 30.7817273,107.973692 C30.8216419,107.946496 30.8663946,107.926099 30.9050996,107.897543 C31.8399167,107.206919 32.8400486,106.616919 33.8436579,106.03659 C34.7219294,105.528782 35.5873496,104.997253 36.4996392,104.548521 C37.5402904,104.036634 38.5729285,103.508732 39.6091951,102.988082 C39.6955255,102.94472 39.7812511,102.899544 39.8700005,102.861319 C41.1130971,102.327222 42.3480294,101.772879 43.6027678,101.267187 C44.6555143,100.842931 45.7306372,100.47352 46.7972933,100.084015 C48.1135667,99.6032522 49.4558449,99.202415 50.7944946,98.7902463 C52.0873333,98.392431 53.3930232,98.0411508 54.7038536,97.7076991 C54.8414379,97.6726466 54.9719162,97.6090384 55.1187231,97.5535891 C55.1392852,97.450698 55.1755711,97.3586852 55.1731521,97.2674279 C55.1627199,96.8815486 55.1287018,96.4959714 55.1256779,96.110092 C55.1179672,95.0953834 55.1222005,94.0808258 55.1200839,93.0659661 C55.1199327,93.0185244 55.1040576,92.9712338 55.0954396,92.923792 C55.0668644,92.8855667 55.0382893,92.8473414 55.0106212,92.8100226 C54.8934478,92.7572928 54.7732505,92.7631852 54.6574378,92.8015617 C53.1211808,93.3113334 51.5595237,93.7378555 50.0138928,94.2165031 C49.1141521,94.4952609 48.2216686,94.7974373 47.3257077,95.0885844 C47.0271044,95.1854319 46.7268381,95.2771425 46.429142,95.3767097 C45.2611875,95.7675749 44.0897557,96.1489217 42.9464454,96.6094386 C42.8570913,96.6453976 42.7639573,96.6727446 42.6730912,96.7052286 C41.4215278,97.1516943 40.1784312,97.6200679 38.9577109,98.1463082 C38.6693887,98.2705028 38.3691223,98.3662927 38.0800441,98.4885231 C36.9899533,98.9496444 35.8933613,99.3952036 34.8161217,99.8874491 C34.0031649,100.258824 33.1876379,100.625062 32.3804264,101.008977 C32.3149605,101.040101 32.2461683,101.064427 32.1816096,101.097062 C31.6565214,101.362524 31.1321893,101.629497 30.6075547,101.895865 C30.260419,102.069012 29.9134345,102.243066 29.5675083,102.420141 C29.3606783,102.52409 29.1543019,102.62955 28.9470183,102.732743 C27.7501863,103.32939 26.5841973,103.981487 25.4238024,104.643858 C24.8344579,104.974741 24.2455669,105.311064 23.6574319,105.653581 C23.5803243,105.696339 23.5007975,105.734262 23.4261089,105.772638 C23.3281368,105.73955 23.3337309,105.670503 23.3834729,105.618982 C23.9885414,104.993627 24.5884693,104.362834 25.2074474,103.75138 C25.6716053,103.292978 26.151336,102.84893 26.6427084,102.419537 C27.0976437,102.022175 27.583422,101.66047 28.0442538,101.269755 C28.8566058,100.580642 29.7215724,99.9599715 30.5974249,99.3589425 C31.5333004,98.7168174 32.4743163,98.0811892 33.4525254,97.4996506 C34.2211831,97.0426086 35.0046575,96.611705 35.7690818,96.1475619 C36.0165823,95.9973802 36.2811675,95.8757541 36.5368324,95.7390193 C37.5597941,95.1917777 38.607249,94.6930354 39.6533431,94.1930844 C40.4371199,93.8183855 41.2485647,93.5009491 42.0480655,93.1588854 C42.1368149,93.1209622 42.2311584,93.0951261 42.3185471,93.0546345 C43.3288088,92.5868653 44.3774731,92.2136773 45.4253815,91.846684 C46.5184962,91.4639775 47.6057144,91.062536 48.7254387,90.7512942 C49.6093043,90.5057758 50.4969497,90.2696249 51.3734069,89.9957019 C51.5803881,89.9310361 51.7928122,89.8826879 52.0040267,89.8325266 C53.2264101,89.5424372 54.4484912,89.2517434 55.6720841,88.9669421 C55.9068845,88.9123992 56.1483374,88.886412 56.3858592,88.8424454 C57.5256921,88.631224 58.664013,88.4122971 59.8053577,88.2096878 C60.2094926,88.1382231 60.6214895,88.1129913 61.0278923,88.0531604 C62.2475543,87.8739697 63.4723567,87.7333066 64.6992759,87.6273937 C65.9993717,87.5149841 67.3033985,87.4469944 68.6077277,87.3823286 C70.010029,87.3125258 71.4117256,87.3306564 72.8135733,87.3081443 C73.3692021,87.2993811 73.9248309,87.3200802 74.4801574,87.3716013 C74.985137,87.4185898 75.4945012,87.4182876 76.0015976,87.4450302 C76.1338902,87.4519803 76.2744983,87.4178343 76.3995337,87.5010839 C76.2678458,87.6221056 76.1031983,87.6545896 75.9399115,87.692966 C74.6936398,87.9865305 73.4485777,88.2843254 72.20155,88.5738105 C71.3545752,88.7705274 70.5050301,88.9562148 69.6565433,89.1458306 C68.5726513,89.388025 67.4873986,89.6238738 66.4050186,89.8724139 C65.1576886,90.1591794 63.9109633,90.4485134 62.6677155,90.7520497 C61.4946205,91.038513 60.3266661,91.3452221 59.1561414,91.6425638 C59.0881052,91.6597878 59.0256631,91.6847174 58.9719901,91.7220362 L58.9376696,91.7309504 L58.9376696,91.7492321 C58.9110599,91.773104 58.8867181,91.8002999 58.8676679,91.8348991 C58.8250319,92.2218361 58.8223105,94.8412529 58.8626786,96.539787 C58.9154445,96.7096101 59.0504585,96.7572029 59.2027083,96.7312158 C59.4878555,96.6824143 59.7711884,96.6210724 60.0524047,96.5530827 C60.8987748,96.3485092 61.7560307,96.1951547 62.615252,96.0670318 C63.332051,95.9600614 64.04885,95.8539974 64.7645906,95.7393214 C65.2654881,95.6589425 65.7671415,95.5830962 66.2683414,95.5040771 C66.339855,95.4927454 66.4095543,95.467967 66.4813703,95.4610169 C67.1544749,95.3962 67.8275795,95.3330452 68.5009865,95.2715522 C68.6211838,95.2606739 68.7431953,95.2665663 68.8632414,95.2543282 C69.5600831,95.1827124 70.2566224,95.1074704 70.9533129,95.0343437 C71.0494707,95.0242208 71.1462333,95.0207458 71.2425423,95.0119826 C72.1570997,94.9284308 73.0704477,94.8272017 73.9863659,94.766011 C74.7095149,94.7176627 75.4358389,94.7131301 76.1609534,94.6983235 C77.1279744,94.6789842 78.0951465,94.6696167 79.0621674,94.6525437 C79.2068577,94.6498241 79.3512456,94.6280674 79.4957847,94.6158293 C79.6161331,94.6057064 79.739203,94.5763952 79.8565277,94.5910508 C80.388873,94.6570764 80.9189504,94.6115988 81.4497838,94.5791148 C81.5701323,94.5718626 81.6921438,94.5694452 81.8123411,94.5786616 C83.0672307,94.6755091 84.3249929,94.6699189 85.5819991,94.6972658 C85.9436492,94.7051224 86.304241,94.7545283 86.6660423,94.7765872 C87.1004155,94.8033298 87.5355447,94.8166255 87.9700691,94.8442747 C88.2591473,94.8625564 88.5474695,94.8957958 88.8360941,94.9231428 C88.9564426,94.9346255 89.0763374,94.9515473 89.1968371,94.9603105 C90.0167487,95.0189327 90.837265,95.0680364 91.6562695,95.1363283 C92.2099328,95.1827124 92.7616306,95.2525151 93.313782,95.3170298 C94.0576443,95.4037545 94.801053,95.4947096 95.5443105,95.5864201 C95.6085668,95.5944278 95.6701018,95.6228324 95.7314855,95.6412652 C95.7236236,95.6799438 95.7266474,95.7146941 95.7127378,95.7240615 C95.6738816,95.7497465 95.6289777,95.7786044 95.5845274,95.7823816 C94.8139042,95.8479539 94.0417692,95.8982663 93.2723556,95.9756235 C92.358554,96.0674851 91.4418799,96.1241432 90.5276248,96.2113211 C89.6860928,96.2913979 88.8456192,96.3921737 87.9987955,96.4279817 C87.323423,96.4565373 86.6504696,96.5406935 85.976609,96.6009777 C85.6878332,96.6268138 85.3996622,96.6595999 85.110584,96.6806012 C84.7251968,96.7085525 84.3364834,96.6993361 83.9574463,96.7946728 C83.8878982,96.8123501 83.813512,96.8158252 83.7412424,96.8165806 C83.20799,96.8226241 82.6810875,96.8866856 82.1537315,96.9622297 C81.6995522,97.0271976 81.2414419,97.0666317 80.7840876,97.1065189 C79.7006492,97.2009491 78.6217465,97.3319426 77.5455653,97.4863548 C77.4259729,97.5034278 77.3063804,97.5322856 77.1863343,97.5342498 C76.531675,97.5445238 75.893798,97.702411 75.2420114,97.7484929 C74.7619784,97.7826388 74.2875394,97.8932354 73.8093206,97.9612251 C73.4747338,98.008969 73.1387863,98.0526335 72.8020827,98.0795272 C72.2234728,98.1260624 71.6593773,98.2798702 71.0778947,98.3028356 C70.9817369,98.3066129 70.8858815,98.3262543 70.7906308,98.3415142 C70.0516067,98.4599674 69.3136409,98.5850685 68.5735585,98.6965716 C67.6423699,98.8369326 66.7104254,98.9709479 65.7858893,99.1533114 C65.3357922,99.2421513 64.8791938,99.2983561 64.4284919,99.3850807 C63.4088563,99.5813444 62.3893719,99.7782123 61.3721554,99.9876206 C60.4028666,100.187208 59.432973,100.38604 58.4701855,100.611766 C57.2946714,100.887351 56.1141681,101.141935 54.9421314,101.432477 C54.7545028,101.478862 54.5670253,101.52585 54.3801526,101.574803 C53.7026634,101.75218 53.0259302,101.932277 52.3446612,102.095755 C51.6402599,102.264823 50.9435694,102.468187 50.2506587,102.680769 C49.6040126,102.878996 48.9532843,103.062417 48.304068,103.250976 C47.5851523,103.45978 46.8757617,103.701974 46.1653128,103.938729 C45.2944497,104.228819 44.4246449,104.522081 43.5583175,104.825617 C42.7833098,105.096972 42.0155593,105.38963 41.2411563,105.662948 C39.6905362,106.209888 38.1768067,106.849898 36.6648916,107.491267 C35.4196782,108.019623 34.1939686,108.595269 32.9724924,109.17711 C32.5090904,109.39785 32.0541551,109.63672 31.5995222,109.87544 C31.2561663,110.048889 30.9140199,110.224604 30.5735366,110.403795 M155.451529,101.991051 C156.051457,102.061005 156.650024,102.143197 157.250708,102.206351 C157.564582,102.239289 157.869082,102.3103 158.177512,102.369678 C159.342292,102.593591 160.483334,102.911934 161.60578,103.284366 C162.406793,103.549979 163.207352,103.827226 163.980243,104.174578 C165.060052,104.659873 166.143037,105.137766 167.180967,105.709937 C167.349999,105.803309 167.514193,105.905747 167.685493,105.994889 C167.770009,106.038705 167.865562,106.058648 167.960359,106.00471 C168.039432,105.935965 168.055005,105.838513 168.054098,105.742723 C168.051225,105.452936 168.036257,105.163299 168.033385,104.873512 C168.024616,104.003395 168.019929,103.133429 168.011916,102.263463 C168.010706,102.144254 167.999367,102.025197 167.99468,101.939681 C167.871912,101.72997 167.678085,101.664247 167.532336,101.54111 C167.384773,101.41616 167.232826,101.296196 167.081483,101.17593 C166.93014,101.055512 166.781065,100.931771 166.62428,100.818606 C166.132605,100.4637 165.693545,100.048056 165.249042,99.6387579 C164.733176,99.1637365 164.239083,98.666354 163.762073,98.1529561 C163.516085,97.8879473 163.294891,97.5998221 163.067499,97.3178914 C163.045728,97.2908466 163.060847,97.2341885 163.057672,97.1692206 C163.152771,97.1652923 163.247569,97.1553204 163.342214,97.1581911 C164.167267,97.1825163 164.973873,97.33436 165.775642,97.5179322 C166.934222,97.7832432 168.038676,98.2011533 169.126348,98.6755703 C170.104557,99.1020925 171.044969,99.5993239 171.931556,100.186302 C172.857604,100.799267 173.770498,101.432326 174.587991,102.197135 C175.100832,102.67684 175.591902,103.174827 176.073901,103.682937 C176.809296,104.458473 177.417237,105.327835 177.954723,106.249322 C178.234427,106.728876 178.513527,107.207826 178.678779,107.741318 C178.634783,107.768061 178.587762,107.818977 178.561757,107.809912 C178.015502,107.617426 177.457152,107.450322 176.930854,107.21266 C176.204833,106.884648 175.475031,106.563283 174.773049,106.18103 C173.945729,105.730183 173.115839,105.284623 172.306057,104.803105 C172.160308,104.716532 172.023329,104.618173 171.849761,104.601704 C171.683904,104.712603 171.648525,104.887866 171.67453,105.052703 C171.758139,105.581663 171.731983,106.11304 171.739996,106.643813 C171.74816,107.175493 171.746044,107.707172 171.750731,108.239003 C171.75194,108.358665 171.762977,108.478478 171.770234,108.612644 C171.843411,108.673684 171.913261,108.737896 171.98916,108.79395 C172.670277,109.296621 173.340812,109.811983 173.957371,110.393521 C174.273512,110.69192 174.587839,110.991831 174.902922,111.291439 C175.517214,111.875546 176.072389,112.512987 176.601559,113.174149 C177.251531,113.986097 177.877313,114.814514 178.381083,115.727843 C178.40346,115.768485 178.407844,115.818949 178.431884,115.904616 C178.415404,115.919876 178.384107,115.949187 178.345704,115.985146 C178.191338,115.915343 178.058138,115.860045 177.929172,115.795983 C177.085221,115.376865 176.231593,114.977538 175.408053,114.516417 C174.459478,113.985342 173.490945,113.489924 172.538287,112.96595 C171.712479,112.511627 170.897103,112.03857 170.076587,111.57488 C169.045763,110.992133 168.01373,110.41135 166.983209,109.828149 C166.751885,109.697307 166.523284,109.561629 166.294985,109.42565 C165.256753,108.807397 164.21852,108.188993 163.181649,107.568322 C163.015792,107.469208 162.85689,107.358309 162.694208,107.253756 C161.698309,106.613293 160.701201,105.974492 159.706966,105.331612 C159.483807,105.187322 159.269569,105.029435 159.052609,104.876081 C158.203971,104.276411 157.351251,103.682333 156.509567,103.073145 C156.137939,102.804057 155.787326,102.505506 155.431572,102.215115 C155.380318,102.173263 155.353104,102.10195 155.312735,102.04091 C155.369886,102.019455 155.412824,101.986518 155.451529,101.991051 M136.112018,49.7488159 C135.522069,49.4709647 134.918361,49.2221223 134.345647,48.9080099 C134.240116,48.8501431 134.134584,48.7907654 134.037065,48.7209626 C134.007583,48.6999614 134.00471,48.6416413 133.988382,48.5969192 C134.437723,48.4959922 134.891751,48.4479462 135.351071,48.4201459 C136.631814,48.3420333 137.911802,48.3589552 139.191789,48.4261895 C140.374863,48.4882867 141.548109,48.6218487 142.71561,48.8333723 C143.642262,49.0013824 144.566496,49.1763426 145.482414,49.3855998 C145.629977,49.3765345 145.686976,49.2740967 145.737928,49.1272389 C145.6392,48.2885481 145.678812,47.4193374 145.672462,46.5513355 C145.668531,45.9968416 145.667473,45.4423478 145.667322,44.9695927 C145.588702,44.762904 145.484833,44.6956697 145.364031,44.6764815 C144.741274,44.578123 144.143009,44.3824638 143.534463,44.227145 C142.505151,43.9642515 141.473571,43.7102722 140.446225,43.4405797 C139.301705,43.1399141 138.162175,42.821269 137.017806,42.5198479 C136.130614,42.2861144 135.23934,42.0682452 134.350485,41.8408573 C134.022853,41.7570034 133.697489,41.6648395 133.370311,41.5791725 C132.202205,41.2738232 131.033495,40.9705891 129.865692,40.664031 C129.608817,40.5964946 129.355118,40.5168711 129.099151,40.4460107 C127.818861,40.0915577 126.535245,39.7490406 125.259037,39.3806875 C124.424309,39.1395507 123.599862,38.8626059 122.77239,38.5965395 C122.738977,38.5858123 122.722497,38.5226574 122.696795,38.4817125 C122.736709,38.4666036 122.775263,38.4401632 122.815178,38.438048 C123.732759,38.3900019 124.649887,38.3359123 125.567922,38.3004066 C126.825533,38.2520583 128.082236,38.2881684 129.338033,38.3691517 C129.724025,38.3940813 130.110773,38.4084347 130.49737,38.4239968 C130.811092,38.4366882 131.123454,38.4430339 131.434606,38.5072464 C131.64582,38.5507598 131.867618,38.5549903 132.084729,38.5552924 C132.739993,38.5563501 133.383616,38.6731413 134.031623,38.7435484 C134.751748,38.8215099 135.470663,38.9133716 136.188067,39.0135431 C136.905924,39.1138657 137.624235,39.2169078 138.337406,39.3457861 C139.59668,39.573325 140.857163,39.7913453 142.106005,40.0793195 C142.905809,40.2636472 143.696994,40.4865023 144.505868,40.634871 C144.837129,40.6959106 145.159167,40.8089247 145.483926,40.9035059 C146.434618,41.1801485 147.386974,41.4512008 148.333735,41.740988 C148.980079,41.9386114 149.626876,42.1409186 150.257496,42.3826598 C151.114752,42.7111256 151.991965,42.9850486 152.836823,43.3464517 C153.813823,43.7642107 154.800347,44.160213 155.773416,44.5868862 C156.392696,44.8582406 157.005173,45.1487833 157.602985,45.4645578 C158.563958,45.9722142 159.538841,46.4519194 160.477891,47.0046002 C161.332728,47.5074219 162.170329,48.0365329 163.001882,48.5733494 C163.711575,49.0316001 164.376667,49.5585959 165.058692,50.0590001 C165.104805,50.0928439 165.12703,50.1591716 165.165886,50.2188515 C165.097548,50.226557 165.047352,50.2465006 165.006077,50.2347157 C163.796394,49.8964292 162.579,49.5824678 161.380958,49.2070135 C160.020839,48.7806425 158.637588,48.4358591 157.279888,48.0008761 C156.314833,47.6915984 155.327099,47.4530301 154.350099,47.1807691 C153.675634,46.9925131 153.002529,46.7995735 152.328215,46.6108642 C151.49137,46.3766775 150.654071,46.1440016 149.816621,45.9122322 C149.725151,45.8868494 149.630958,45.8714384 149.564888,45.8573872 C149.405985,45.9208442 149.348079,46.0272104 149.350196,46.1535201 C149.35458,46.4183778 149.383609,46.6830844 149.385877,46.9479421 C149.395856,48.0351731 149.400089,49.1224041 149.405078,50.2096351 C149.405683,50.3330742 149.419593,50.4501676 149.514541,50.5535119 C150.118853,50.7688127 150.735261,50.9798829 151.345168,51.2087816 C151.79723,51.3783026 152.241129,51.5695804 152.687748,51.7536058 C153.672308,52.1592778 154.616952,52.6503146 155.545419,53.1661298 C156.283385,53.5760322 157.002754,54.0229512 157.698084,54.5073401 C158.313433,54.9361286 158.92455,55.3680899 159.490157,55.861393 C159.539445,55.9044531 159.56545,55.9745581 159.61232,56.0478359 C159.348491,56.0999613 159.110213,56.0553903 158.871784,56.0272879 C158.631843,55.9990344 158.392658,55.9600536 158.151961,55.9429806 C157.789706,55.9172956 157.430777,55.8761996 157.072453,55.81516 C156.358376,55.6932317 155.637948,55.6042408 154.926895,55.4672037 C153.978924,55.284387 153.038664,55.061834 152.092356,54.8690454 C151.050798,54.6569175 150.020276,54.3965925 148.99414,54.1246336 C147.827395,53.8152049 146.652788,53.531159 145.504186,53.1540428 C144.77,52.913057 144.027045,52.6992671 143.289533,52.4687065 C142.805569,52.3173161 142.322209,52.1636593 141.842327,51.9997286 C140.790639,51.6405918 139.744545,51.264231 138.712058,50.8543286 C137.837264,50.5071278 136.965192,50.1507107 136.112018,49.7488159 M98.799537,0.000519233832 L99.2728444,0.00452307225 C99.432805,0.00814919007 99.5947311,0.0116242196 99.7590763,0.0154014257 C99.8413245,0.0179699258 99.9238751,0.0206895142 100.007182,0.0232580143 C100.083987,0.0277906616 100.161246,0.0324743971 100.239109,0.0370070443 C100.517302,0.0533245745 100.811974,0.0803693699 101.114811,0.112551165 C101.114811,0.112551165 101.436395,0.145488402 101.596809,0.15772655 C101.551452,0.294461409 101.477217,0.561283245 101.459527,0.704968163 C101.449246,0.715091076 101.438814,0.726120517 101.428533,0.73881193 C101.403133,0.846386758 101.366393,0.985539029 101.337213,1.12620218 C101.204921,1.76439892 101.074594,2.40289783 100.943813,3.04139674 C100.890594,3.30157069 100.823767,3.55993159 100.78733,3.82252295 C100.661538,4.73162091 100.423109,5.62213501 100.344036,6.5384852 C100.127681,7.45770606 100.056924,8.39838146 99.9341561,9.33150244 C99.8963582,9.61872119 99.8497912,9.90503341 99.8136565,10.1925543 C99.7716252,10.5278191 99.7347345,10.8638394 99.6996581,11.2000107 C99.6745603,11.440241 99.654603,11.6810757 99.6355529,11.9216082 C99.6201313,12.1143968 99.6125717,12.3077897 99.5962431,12.5002761 C99.5221592,13.366314 99.4400622,14.2315963 99.3726308,15.0982385 C99.3071649,15.9411598 99.3510104,16.7902757 99.2385239,17.6312329 C99.2332322,17.6708683 99.2311491,17.7109067 99.2306732,17.7511522 L99.2342906,17.9935425 C99.2308132,18.307806 99.2228,18.6219185 99.2234048,18.936182 C99.2261262,20.4827212 99.2308132,22.0295627 99.2362561,23.576253 C99.2367096,23.6968214 99.240943,23.8187496 99.2581788,23.9378072 C99.3307508,24.4416865 99.348289,24.9479832 99.3505568,25.4560929 C99.3517664,25.6975319 99.3729332,25.9389709 99.3895643,26.1799567 C99.4176859,26.5895569 99.4486801,26.9991571 99.4798256,27.4086063 C99.4999341,27.6736151 99.5023531,27.9420989 99.547257,28.2028772 C99.6707805,28.9181289 99.6505208,29.6480362 99.7876515,30.3622303 C99.8556877,30.7168344 99.8633985,31.082468 99.9095119,31.4416047 C99.9651504,31.8726595 100.030465,32.3025055 100.095629,32.7323516 C100.204487,33.4482077 100.315763,34.1637616 100.427948,34.8793155 C100.469072,35.1416047 100.507021,35.4048004 100.561601,35.6645211 C100.780073,36.7043104 101.00429,37.7427399 101.22639,38.7817737 C101.281877,39.0414944 101.327386,39.3040858 101.394515,39.5607847 C101.674673,40.6350221 101.955587,41.7092595 102.247235,42.7804751 C102.646985,44.2489018 103.151058,45.6851466 103.603877,47.1371046 C103.61824,47.1830354 103.643489,47.2254912 103.660573,47.2706666 C104.070151,48.3550269 104.479124,49.4396894 104.889004,50.5237475 C104.948876,50.6819369 105.008597,50.8404285 105.076331,50.9952939 L105.076331,50.9952939 L106.212686,53.5817736 C106.494054,54.2234453 106.77527,54.8651171 107.110764,55.4812549 C107.180161,55.6086223 107.244568,55.7385582 107.308522,55.8686452 C107.776611,56.8227674 108.244095,57.7770408 108.711731,58.7314652 C108.839185,58.9916392 108.97435,59.2486403 109.09228,59.5131958 C109.445917,60.3071645 109.801973,61.1005289 110.139886,61.9014476 C110.515143,62.7913574 110.880875,63.6856487 111.232698,64.585077 C111.4613,65.1693352 111.657244,65.7664359 111.867854,66.3577953 C111.932564,66.5398567 112.004682,66.7196517 112.060018,66.9044326 C112.315683,67.7601964 112.563335,68.6180754 112.820511,69.4732349 C113.161902,70.6079076 113.434954,71.7590489 113.670964,72.9194066 C113.786474,73.4871962 113.92043,74.0527195 114.002224,74.6256461 C114.125143,75.4859426 114.260459,76.344426 114.350721,77.2103127 C114.421025,77.8829575 114.51053,78.5551491 114.542129,79.229607 C114.631786,81.1364917 114.696949,83.0445852 114.474546,84.9485992 C114.455043,85.1164582 114.452019,85.2861303 114.442192,85.455047 C114.433725,85.5997895 114.440075,85.7466473 114.416791,85.8889724 C114.280265,86.7223751 114.210717,87.566203 114.02838,88.3926557 C113.945074,88.769923 113.858139,89.146586 113.789951,89.526724 C113.606254,90.5518577 113.292078,91.5416368 112.983798,92.5329268 C112.912285,92.7633363 112.808114,92.983623 112.736146,93.2138815 C112.360738,94.4168461 111.856817,95.5652678 111.276392,96.6816588 C111.220754,96.7889315 111.171314,96.899377 111.119002,97.0083116 C110.616593,98.0570151 110.005023,99.0409017 109.347945,99.9983479 C108.80048,100.796094 108.212648,101.562564 107.594879,102.306674 C107.534402,102.379499 107.467727,102.447639 107.434918,102.483749 C107.268759,102.55325 107.149469,102.53799 107.038041,102.484958 C106.336361,102.151053 105.595976,101.935752 104.846217,101.741755 C104.352426,101.613934 103.857576,101.513159 103.347305,101.493064 C103.202463,101.487323 103.054749,101.485358 102.913838,101.455745 C102.337345,101.33427 101.755409,101.374006 101.178765,101.4148 C99.7699621,101.514065 98.4157397,101.863683 97.102339,102.376628 C97.0125313,102.41168 96.9243866,102.452625 96.8389634,102.497347 C96.1109763,102.877637 95.3861641,103.258983 94.703988,103.724033 C93.8961717,104.274447 93.1963062,104.940595 92.5564637,105.663553 C91.654304,106.682643 90.9329692,107.825021 90.4402361,109.102472 C90.3709904,109.282418 90.2864743,109.457076 90.1978761,109.628561 C90.1431448,109.734776 90.0766205,109.83797 89.9732055,109.894023 C89.8003936,109.977877 89.6312103,109.941314 89.4665627,109.911399 C88.7529388,109.781463 88.0412803,109.640195 87.3148051,109.598948 C87.2667262,109.596228 87.2189497,109.585803 87.1714755,109.576738 C86.2203297,109.39513 85.2530064,109.339378 84.2944522,109.21458 C83.6484109,109.130423 82.9936004,109.111991 82.3425697,109.065607 C81.6191183,109.014237 80.8920383,109.030554 80.1705524,108.940203 C80.0033346,108.919353 79.832337,108.927814 79.6630025,108.927512 C79.0098552,108.92585 78.356859,108.924943 77.7037117,108.926152 C77.5101865,108.926454 77.3166614,108.930685 77.1234386,108.940657 C76.6164935,108.966946 76.1096995,108.99671 75.6029056,109.026324 C75.3130714,109.043094 75.020667,109.042188 74.7343103,109.083737 C73.945393,109.198262 73.1458923,109.222889 72.3609059,109.368841 C71.7913675,109.474754 71.2141183,109.539419 70.6541049,109.697004 C70.2820226,109.801557 69.9051021,109.888584 69.5319615,109.989511 C68.2905279,110.325078 67.0991388,110.779098 65.9836478,111.430289 C65.2680584,111.847897 64.6177836,112.342711 64.0372082,112.930142 C63.3625917,113.613061 62.8843729,114.412619 62.627045,115.340603 C62.6078436,115.409953 62.6008888,115.489879 62.5606719,115.545026 C62.3131714,115.885579 62.2412042,116.29805 62.0888032,116.676828 C61.9627095,116.990034 61.8692731,117.316384 61.7490758,117.632159 C61.3532565,118.671797 61.016553,119.727602 60.8165266,120.825107 C60.6995043,121.467836 60.5938215,122.109357 60.6113597,122.765684 C60.6184657,123.031448 60.6027418,123.297817 60.6119645,123.563128 C60.6201288,123.804114 60.644773,124.044646 60.6683589,124.284725 C60.6848388,124.452735 60.7149259,124.619235 60.7332201,124.787094 C60.7828109,125.24474 60.8779103,125.69181 61.0071791,126.134347 C61.1695588,126.689748 61.3532565,127.236838 61.5888128,127.759302 C60.2199249,131.237353 58.7928281,134.670833 57.5368802,138.180311 C57.5653042,138.347263 57.5751317,138.518295 57.6247225,138.676938 C57.8056987,139.255304 58.0551647,139.803452 58.3744812,140.320627 C58.9092456,141.186665 59.5115926,142.000124 60.191652,142.758134 C60.9994683,143.658771 61.8363133,144.52919 62.7522315,145.321497 C63.3919228,145.874782 64.0382666,146.420361 64.7128831,146.931342 C64.9440549,147.106604 65.1632826,147.298335 65.4023164,147.461964 C66.339855,148.103333 67.2714971,148.753768 68.243205,149.343466 C68.4911591,149.49395 68.7336703,149.654405 68.9891839,149.790385 C69.7784036,150.21041 70.5429791,150.673798 71.3458061,151.070404 C71.9306149,151.359285 72.504689,151.669167 73.103861,151.92919 C73.414106,152.063658 73.7145235,152.221394 74.0258269,152.353446 C74.7819356,152.674055 75.5354741,153.002974 76.3021663,153.296992 C77.36217,153.703721 78.4294309,154.092169 79.511055,154.43937 C79.7411685,154.513101 79.9637224,154.611157 80.1956502,154.677787 C81.0778527,154.931313 81.963079,155.174112 82.8458863,155.425372 C84.1246641,155.789192 85.4238528,156.064022 86.7225879,156.345348 C87.6678373,156.550073 88.6156569,156.731832 89.5692218,156.888359 C89.7834602,156.923563 89.9930116,156.998503 90.2078547,157.015575 C91.0759964,157.084472 91.9182843,157.339055 92.791113,157.368518 C93.7923032,157.53819 94.804228,157.622044 95.812373,157.731734 C96.7010767,157.82843 97.5959793,157.869073 98.4881604,157.931926 C98.7051203,157.947337 98.9254063,157.935099 99.1397959,157.966374 C99.7164403,158.049623 100.296109,158.055516 100.876382,158.06579 C101.383478,158.074704 101.892389,158.050832 102.3951,158.151457 C102.488537,158.170192 102.58787,158.163091 102.684481,158.163544 C103.627462,158.168228 104.570444,158.175027 105.513425,158.175178 C106.408026,158.17548 107.302626,158.16989 108.197226,158.163997 C108.390449,158.162637 108.583671,158.152061 108.776592,158.140276 C109.162433,158.116707 109.547669,158.082561 109.933812,158.065337 C110.489289,158.040407 111.045523,158.029831 111.601001,158.006865 C111.890381,157.994929 112.179308,157.968942 112.468386,157.949452 C113.602171,157.873606 114.73762,157.816645 115.868986,157.71315 C116.35038,157.669183 116.837972,157.669939 117.312714,157.586085 C118.052645,157.455544 118.802857,157.439378 119.546115,157.343437 C120.600071,157.207609 121.657202,157.094292 122.709344,156.94124 C123.139332,156.878538 123.568565,156.801483 124.000973,156.764316 C124.580641,156.714759 125.149726,156.606882 125.722288,156.513811 C126.270055,156.42482 126.815705,156.323894 127.374509,156.300022 C128.002105,156.272977 128.627735,156.199397 129.253971,156.14425 C129.325787,156.137904 129.396695,156.120075 129.468058,156.10678 C129.919213,156.02217 130.371427,155.943 130.821222,155.85129 C131.627526,155.68751 132.42355,155.474324 133.192812,155.188314 C134.098903,154.851388 134.965986,154.427887 135.799959,153.928994 C136.745057,153.363773 137.556804,152.645046 138.308679,151.858783 C139.286284,150.836369 140.032414,149.646549 140.604069,148.358824 C140.926712,147.632391 141.236805,146.896894 141.472513,146.132387 C141.671481,145.486787 141.889348,144.84436 142.147281,144.220366 C142.418065,143.564794 142.586643,142.895473 142.64455,142.190193 C142.680231,141.754756 142.6763,141.329745 142.619149,140.892949 C142.466748,139.727303 142.098748,138.632518 141.575323,137.592275 C140.976454,136.402304 140.239546,135.292863 139.409656,134.251865 C138.625728,133.268885 137.748061,132.366284 136.88249,131.454769 C136.832597,131.40219 136.779982,131.351727 136.725704,131.303832 C135.873135,130.553074 135.060934,129.757292 134.184024,129.033882 C134.016201,128.895485 133.852461,128.7518 133.680102,128.619447 C132.778396,127.928369 131.875027,127.239709 130.971204,126.551502 C130.836643,126.448913 130.699966,126.348893 130.559509,126.254614 C129.596268,125.608409 128.631969,124.963867 127.667518,124.319476 C127.526759,124.225499 127.385848,124.131673 127.240704,124.044797 C126.225,123.436063 125.208388,122.828839 124.191625,122.221766 C124.067195,122.147582 123.941252,122.075362 123.813495,122.006919 C122.876864,121.503795 121.939628,121.001729 121.002391,120.49936 C120.768196,120.373806 120.537931,120.239942 120.2992,120.123453 C119.495919,119.731379 118.687498,119.349881 117.885125,118.955994 C116.735313,118.391679 115.572046,117.858338 114.374911,117.400541 C114.308689,117.375158 114.250632,117.328471 114.198924,117.297801 C114.081449,117.130848 114.121212,116.964349 114.161429,116.79936 C114.310201,116.188511 114.403335,115.57192 114.4496,114.942939 C114.497528,114.290691 114.512344,113.645696 114.459579,112.992239 C114.406661,112.339387 114.313074,111.697564 114.16536,111.061784 C114.105337,110.803121 114.056048,110.539623 113.967299,110.29063 C113.708308,109.563896 113.478799,108.822959 112.993172,108.125687 C113.057277,108.035789 113.104751,107.961 113.152225,107.895126 C113.150109,107.891198 113.147841,107.887269 113.145875,107.883341 C113.209981,107.814294 113.276807,107.741318 113.346053,107.664867 C113.94205,107.002194 114.477873,106.289964 115.043027,105.601909 C115.1221,105.496751 115.202231,105.388572 115.282968,105.27858 C115.952444,104.296657 116.617384,103.312015 117.229256,102.292623 C117.291396,102.189127 117.356559,102.086992 117.413105,101.980475 C117.934716,100.999308 118.467212,100.02358 118.926985,99.0108352 C119.026923,98.7911528 119.137746,98.5763054 119.229973,98.3534502 C119.442548,97.8399013 119.654973,97.3262013 119.852126,96.806911 C120.18626,95.9262176 120.524475,95.0459775 120.774546,94.1373328 C120.97941,93.39277 121.1938,92.6510778 121.385662,91.9025866 C121.632104,90.9413632 121.807637,89.9675995 121.971529,88.9927782 C122.115312,88.1367122 122.289636,87.2812506 122.308384,86.4072051 C122.309442,86.3593101 122.321235,86.3115662 122.326224,86.2635202 C122.443246,85.1580075 122.542882,84.0491709 122.549383,82.9383701 C122.558303,81.4170626 122.590507,79.893942 122.423289,78.3756563 C122.299161,77.2474804 122.203457,76.1161316 122.09475,74.9862938 C122.090063,74.9380966 122.083108,74.8902016 122.074944,74.8426088 C121.9679,74.2242047 121.871591,73.6035342 121.750336,72.9878496 C121.54532,71.9460961 121.366763,70.8986014 121.100515,69.8693883 C121.046086,69.6592245 121.001938,69.4464923 120.947358,69.2361774 C120.747482,68.465023 120.578753,67.6837457 120.33609,66.9258871 C119.96809,65.7762567 119.641517,64.6127261 119.22574,63.4786578 C118.926532,62.6621769 118.632767,61.8435808 118.317381,61.0335968 C117.914607,59.9986423 117.503366,58.9665585 117.029683,57.9612174 C117.00897,57.9177039 116.99763,57.869809 116.977371,57.8261445 C116.560233,56.928227 116.200851,56.0037181 115.719911,55.135565 C115.579454,54.8821901 115.456989,54.6186922 115.331046,54.3576117 C114.953521,53.5745213 114.600791,52.7785885 114.195901,52.0098515 C113.767575,51.1962413 113.445386,50.3347362 113.022654,49.5196151 C112.662667,48.5197131 112.200021,47.5613604 111.830812,46.5638758 C111.470371,45.589961 111.133668,44.6080385 110.789858,43.6288356 C110.462075,42.6949592 110.20127,41.7396282 109.924438,40.7891321 C109.620392,39.7454145 109.350968,38.6939914 109.108306,37.6354672 C108.79534,36.2706871 108.487816,34.9042451 108.277811,33.5184637 C108.23079,33.2081285 108.194958,32.8952247 108.126468,32.5894221 C107.941259,31.7629694 107.910567,30.9140046 107.751362,30.0840769 C107.682419,28.950764 107.453968,27.8318044 107.442024,26.6932034 C107.44142,26.6451574 107.437791,26.5960537 107.428266,26.5489142 C107.335888,26.0961027 107.342087,25.6364923 107.327421,25.1777884 C107.31336,24.7429564 107.290228,24.3084266 107.269364,23.8738968 C107.252128,23.5120405 107.221587,23.1506374 107.215539,22.7887811 C107.199816,21.8464437 107.188023,20.9041064 107.186813,19.9616179 C107.185906,19.333393 107.196338,18.7048659 107.219622,18.0770943 C107.237613,17.5946695 107.297788,17.1139067 107.313512,16.631482 C107.334074,16.0037103 107.321978,15.374881 107.432802,14.7526997 C107.453817,14.6345487 107.44913,14.5117139 107.451852,14.3908433 C107.460621,13.9795811 107.489801,13.5710385 107.557232,13.1640068 C107.596693,12.9266472 107.600473,12.6829418 107.618767,12.4421072 C107.631467,12.2733416 107.630258,12.1030652 107.654448,11.9361127 C107.79294,10.9800263 107.873827,10.0166876 108.028496,9.06256537 C108.105906,8.58573088 108.143553,8.10270177 108.222021,7.62616945 C108.355221,6.81633647 108.503691,6.009072 108.651103,5.20180752 C108.7205,4.82182059 108.80169,4.44394889 108.8791,4.06562394 C108.961499,3.66372921 109.049946,3.26304319 109.127961,2.86024194 C109.168783,2.64947384 109.205069,2.43779921 109.240599,2.2259735 C109.282025,2.15813488 109.321033,2.08954082 109.358528,2.0203424 C109.409177,1.79355895 109.460129,1.56858856 109.511534,1.34679102 L109.511534,1.34679102 L109.689033,1.40707522 L109.70264,1.41175896 L109.866834,1.48730308 C110.046298,1.54864491 110.224099,1.61240415 110.400086,1.67873188 C110.947097,1.88738475 111.546118,2.01233472 112.171749,2.12398893 C112.797681,2.2323192 113.45733,2.27930765 114.120607,2.34654192 C115.450034,2.45668524 116.814538,2.53721528 118.011218,2.78182714 C119.316757,3.04970659 120.684133,3.28812384 122.025504,3.62565497 C122.69498,3.79865101 123.363096,3.9748199 124.005055,4.21278388 C124.648828,4.44455325 125.277785,4.69687061 125.866978,5.02065271 C128.637412,6.49436743 131.36657,8.05133177 134.225904,9.14067799 C135.062144,9.47382757 135.929378,9.7329439 136.794043,10.0067158 C137.671407,10.2629615 138.548015,10.519056 139.424473,10.7751506 C141.180411,11.3003333 142.951468,11.8548272 144.595525,12.6752363 C146.964545,13.8414865 149.238616,15.2082307 151.433464,16.6928238 C153.629218,18.1781723 155.745899,19.7806142 157.824329,21.4314043 C160.031271,23.1837258 162.1794,25.0259447 164.236663,26.9696949 C167.708172,30.5056131 170.890602,34.3261814 173.745249,38.3927215 C174.671902,40.0444181 175.448724,41.6592493 176.154486,43.297348 C176.539571,44.1451041 176.8796,45.0147681 177.257277,45.8752156 C177.435078,46.3118606 177.614845,46.7504698 177.802322,47.1902877 C177.896061,47.4098189 177.990556,47.630861 178.085655,47.8532629 C178.178487,48.0762691 178.272074,48.3009373 178.366569,48.5272675 C178.561152,48.9755463 178.758911,49.4306241 178.960298,49.8943139 C179.159266,50.3586081 179.368515,50.8272838 179.590464,51.3020031 C180.014254,52.2611112 180.491717,53.2424294 180.992614,54.2804056 C181.575004,55.4418209 182.793456,57.1140656 183.879616,58.874999 C184.976964,60.6273205 185.888196,62.4823819 185.994937,63.8050084 C186.063427,64.9300114 185.970444,65.9915574 185.939298,67.0460023 C185.926901,68.0966699 185.980876,69.1375168 186.422053,70.2329066 C186.597586,70.6940279 186.932929,71.113751 187.282937,71.5466188 C187.63854,71.9782779 187.977965,72.4294274 188.200972,72.9364796 C188.269462,73.0987483 188.379983,73.2867021 188.514241,73.4930887 C189.384499,78.1828677 189.890537,82.9991076 190,87.9115907 C190,88.0066252 189.998186,88.0909324 189.998186,88.1882333 C189.998186,103.168935 186.908889,123.743225 183.767281,134.273471 C183.750902,134.328366 183.736186,134.380962 183.72231,134.432399 L183.642548,134.736254 C182.499087,138.161878 180.524072,141.498662 177.585514,144.737692 C174.004996,148.684117 168.857227,152.217013 162.154454,155.336985 C155.447598,158.457411 146.952601,160.984513 136.669461,162.910283 C126.377854,164.836507 114.167325,165.801659 100.025173,165.801659 C97.7424839,165.801659 95.5110483,165.776125 93.3292036,165.725964 C92.9140317,165.577746 92.4970455,165.41034 92.077489,165.215739 C89.8351677,164.175949 86.3789296,163.924539 82.8173111,163.887824 C79.2596235,163.853376 75.5880888,164.021386 73.0285676,164.017307 C72.3590916,164.018818 71.6829632,164.055532 71.0038109,164.115514 C68.3541796,163.767256 65.8109871,163.366116 63.3769549,162.910283 C53.0895818,160.984513 44.5495291,158.457411 37.7527145,155.336985 C30.9557488,152.217013 25.7671583,148.684117 22.1866409,144.737692 C19.6422389,141.933343 17.8217418,139.055263 16.6350396,136.1101 C16.5565712,135.585521 16.4211036,134.98132 16.2098891,134.273471 C13.1840933,124.131068 10.2152967,104.685861 10,89.8804216 C10.0107346,73.1659826 14.607259,57.5041754 22.5959163,44.0836112 C23.0067037,43.4336296 23.4203636,42.800721 23.8364427,42.1835255 C23.9713055,41.9822759 24.1055636,41.7819329 24.2390657,41.5824965 C24.3745333,41.3842687 24.5154438,41.1908757 24.6522721,40.9962741 C24.9280454,40.6085816 25.2013997,40.2240621 25.4726373,39.8424132 C25.7493177,39.4645415 26.0323483,39.095584 26.3090287,38.7261732 C26.5870699,38.357669 26.859517,37.9890137 27.1478393,37.6347118 C27.4319281,37.2778413 27.7145051,36.9226329 27.9960237,36.5687842 C28.2742161,36.2129714 28.5728193,35.8746848 28.8584201,35.5285417 C29.1491613,35.1863268 29.4296216,34.8379173 29.725957,34.5031058 C30.0213852,34.1679921 30.316511,33.8331805 30.6114857,33.498369 C30.7596534,33.3315675 30.9043436,33.1620465 31.0550816,32.9975114 L31.0550816,32.9975114 L31.5095633,32.5061725 C31.8120975,32.1781599 32.1149341,31.8496941 32.4185267,31.5204728 C32.7292252,31.1980505 33.0409821,30.8751749 33.3537974,30.5507884 C33.6663102,30.2267042 33.9765552,29.8983894 34.3028265,29.5818595 C34.6245621,29.2618547 34.9479607,28.9400367 35.2733249,28.6161035 C35.5964211,28.2905083 35.9382651,27.9792666 36.272096,27.6557866 C36.9370363,27.0061072 37.6387161,26.3751627 38.3438733,25.7230658 C39.7742963,24.4403267 41.2670101,23.1199665 42.9009368,21.7991531 C44.5300254,20.473656 46.2634361,19.1031345 48.1740433,17.7261163 C48.5349374,17.4490204 49.0001537,16.7177533 49.3826682,15.8127348 C49.4250019,15.7140741 49.4655212,15.6123918 49.5054358,15.5099539 C60.3575091,8.13065309 72.8997525,3.05695883 86.421112,1.00019459 C86.6568196,0.999590236 86.8950974,0.996568471 87.1373063,0.989165147 C88.5580529,0.933715762 89.790415,0.857265111 90.9294918,0.723400929 C92.0717437,0.621718542 93.1201057,0.452801887 94.1772368,0.335104146 C94.4412172,0.302317998 94.7053487,0.269531849 94.9709922,0.236745701 C95.1038896,0.22042817 95.2370893,0.204261728 95.3708938,0.18779311 C95.5050007,0.175554962 95.6397123,0.163165727 95.7750287,0.150776491 C96.3167479,0.102881518 96.8705624,0.0592170159 97.4475092,0.0256754262 C98.0253632,-0.00499548701 98.6343626,-0.00257807513 99.2728444,0.00452307225 Z M76.9877594,115.234343 C77.7334359,115.122991 78.4839506,115.165749 79.2328022,115.161821 C79.3536042,115.161216 79.4745574,115.166656 79.5952082,115.173001 C80.1744229,115.203521 80.7536376,115.236458 81.3328523,115.266072 C81.7189954,115.285713 82.1068017,115.281332 82.4873507,115.367603 C82.5810895,115.388604 82.6790616,115.395705 82.7755218,115.399029 C83.477504,115.423052 84.1676932,115.541354 84.8607551,115.642886 C85.3385203,115.71284 85.8206701,115.744266 86.2993424,115.818904 C87.5162829,116.008973 88.7244543,116.246181 89.9377662,116.454381 C90.5322513,116.556365 91.1184208,116.707 91.7077653,116.838296 C92.2497869,116.959166 92.7925644,117.077317 93.3323181,117.207858 C94.3883908,117.463499 95.4434052,117.722918 96.487685,118.024036 C96.7428963,118.097465 97.0035505,118.151706 97.2584594,118.226192 C98.1158665,118.476697 98.9722152,118.731583 99.8287151,118.986015 C100.24555,119.109757 100.663443,119.230476 101.077708,119.362225 C101.814313,119.596563 102.550918,119.831052 103.283139,120.078534 C104.015208,120.326017 104.7438,120.584227 105.470427,120.847725 C106.174072,121.102913 106.873181,121.370641 107.573954,121.633535 C108.003792,121.794746 108.437106,121.947043 108.861501,122.121398 C109.777419,122.497457 110.706491,122.841787 111.608197,123.252747 C111.783882,123.332824 111.961229,123.410332 112.140996,123.48089 C113.063869,123.842294 113.958923,124.266851 114.85942,124.678869 C115.298631,124.880119 115.740564,125.075929 116.175088,125.286999 C116.913961,125.645532 117.649205,126.011619 118.383694,126.379367 C118.858889,126.617482 119.333781,126.856655 119.80187,127.108368 C120.524868,127.497269 121.243633,127.894631 121.960885,128.293957 C122.425497,128.552469 122.890108,128.811586 123.344439,129.087322 C124.067134,129.526233 124.783631,129.975419 125.498162,130.427777 C125.926941,130.699131 126.350428,130.979702 126.769985,131.264957 C127.509462,131.767627 128.236996,132.28722 128.939583,132.840807 C129.281276,133.109895 129.624783,133.377321 129.963603,133.650036 C130.755393,134.287477 131.50243,134.973871 132.205471,135.708009 C132.439515,135.952318 132.672048,136.19829 132.902161,136.446075 C133.397465,136.979718 133.819743,137.572438 134.204979,138.184345 C134.657193,138.902618 134.979835,139.6845 135.135865,140.527875 C135.185002,140.793186 135.198156,141.05487 135.157485,141.32003 C135.139191,141.43939 135.107441,141.55739 135.097311,141.677354 C135.052256,142.206314 134.803244,142.646736 134.479543,143.044249 C134.047135,143.575022 133.52371,144.006077 132.899742,144.294202 C132.175081,144.628561 131.43636,144.926658 130.63701,145.044053 C130.350805,145.085905 130.070193,145.164168 129.78686,145.225812 C129.692366,145.246209 129.598627,145.277787 129.503225,145.284284 C128.756037,145.334445 128.017617,145.479943 127.264683,145.474504 C126.684562,145.470273 126.104289,145.5017 125.524016,145.507592 C124.677797,145.516053 123.833241,145.460452 122.987778,145.433257 C122.439709,145.320998 121.879544,145.352424 121.327544,145.294104 C120.48707,145.205113 119.648864,145.094366 118.81081,144.983769 C118.380216,144.92696 117.952798,144.847185 117.523112,144.78403 C116.471121,144.629618 115.425934,144.441211 114.389214,144.204305 C114.154262,144.150517 113.910693,144.135258 113.674834,144.084643 C113.226098,143.988249 112.783862,143.858011 112.332405,143.780049 C111.426163,143.623522 110.548496,143.350958 109.654047,143.147443 C108.87783,142.97082 108.111893,142.747814 107.342933,142.540219 C106.806657,142.395476 106.271288,142.246806 105.738036,142.091487 C105.088819,141.902627 104.435067,141.7254 103.795678,141.507078 C102.150261,140.945634 100.491236,140.425286 98.8550418,139.833926 C97.2413747,139.250877 95.6453971,138.624314 94.0488147,137.999262 C93.1944314,137.664601 92.3606102,137.278118 91.5177175,136.91475 C91.406743,136.866855 91.2977339,136.814277 91.185701,136.769555 C90.1078567,136.339255 89.0638793,135.835225 88.0226233,135.325 C87.6756388,135.154875 87.3176173,135.006808 86.9727494,134.832906 C86.2178502,134.452314 85.4668819,134.063715 84.7163672,133.674361 C84.3089061,133.462837 83.9025033,133.248745 83.501241,133.02589 C82.8045505,132.638651 82.1092208,132.248692 81.4188803,131.850273 C80.9376377,131.572421 80.4607797,131.286411 79.9902717,130.990883 C78.9054725,130.309475 77.8224877,129.625498 76.7715555,128.892267 C76.5337312,128.726372 76.2886498,128.570751 76.054303,128.400324 C75.8595683,128.258905 75.6713348,128.107364 75.489905,127.949174 C75.4456059,127.910647 75.4388023,127.829059 75.4173331,127.77361 C75.4673775,127.729492 75.4974646,127.686281 75.5381351,127.671021 C75.6046594,127.646091 75.6788944,127.623579 75.7482913,127.627507 C76.4480057,127.666337 77.1499879,127.595477 77.8493998,127.676007 C78.1127754,127.706526 78.3805356,127.699727 78.6464815,127.704864 L78.6464815,127.704864 L79.3720496,127.708642 C80.7016277,127.735838 82.026519,127.844923 83.3521662,127.939656 C83.7621976,127.969118 84.1720778,127.999335 84.5824116,128.023358 C84.9925941,128.04723 85.4047422,128.044209 85.8088771,128.133955 C85.8558977,128.14438 85.9048837,128.149366 85.9531138,128.149819 C86.9210419,128.15828 87.8812592,128.296677 88.8479778,128.325837 C88.9185842,128.327952 88.9899466,128.310577 89.0625185,128.301965 C89.0487601,128.252408 89.0507256,128.191822 89.0236623,128.172785 C88.4899563,127.797784 87.9509585,127.430488 87.3658473,127.137226 C87.2146558,127.06138 87.0613476,126.989159 86.9127264,126.908629 C85.247503,126.00633 83.4864243,125.351665 81.6613915,124.85534 C81.0306205,124.683855 80.3895685,124.568424 79.7522962,124.430329 C78.9251274,124.250836 78.0851074,124.15701 77.2476576,124.050342 C76.7694388,123.989453 76.2827533,123.980993 75.7995452,123.9751 C75.0744307,123.966488 74.3490139,123.976309 73.6238993,123.986583 C73.1402377,123.993382 72.6611118,124.051853 72.1910574,124.15006 C72.1029127,124.318675 72.0643589,124.523399 71.8183703,124.553919 C71.7672675,124.518716 71.701348,124.485627 71.6513036,124.436524 C71.1845754,123.977971 70.7928382,123.454601 70.3794806,122.950269 C70.3017682,122.855234 70.2715299,122.734968 70.3252029,122.605485 C70.3572555,122.580405 70.3944486,122.551093 70.4307345,122.52284 C71.1212262,122.394566 71.8253251,122.388976 72.5159679,122.266141 C72.7519779,122.223987 72.99842,122.243176 73.2398729,122.229427 C73.794897,122.197396 74.3497698,122.163703 74.9046427,122.128046 C76.1122093,122.050236 77.3212878,122.063078 78.5302152,122.069877 C79.0382187,122.072748 79.5465246,122.058395 80.0537721,122.074561 C80.8021701,122.098433 81.5526848,122.079094 82.2979078,122.185913 C82.5358832,122.22021 82.7805111,122.207519 83.0219639,122.219001 C83.4803766,122.240909 83.9418131,122.227009 84.3931198,122.334131 C84.439838,122.34516 84.4889752,122.348786 84.5372053,122.350297 C85.6260866,122.385501 86.697732,122.595816 87.7831359,122.666223 C88.5891379,122.822599 89.4126781,122.855536 90.2179241,123.022489 C90.571561,123.095767 90.936235,123.11435 91.2938029,123.170404 C91.7470751,123.241416 92.1979282,123.32678 92.6504444,123.40308 C93.7220898,123.583782 94.7938865,123.764483 95.8664391,123.940803 C96.0064424,123.963768 96.1506791,124.00562 96.2961254,123.940199 C96.2807038,123.903484 96.2758657,123.850301 96.2485001,123.833077 C95.4509648,123.330709 94.6510105,122.832269 93.7954177,122.431129 C93.6640323,122.369636 93.5302278,122.312525 93.4033781,122.242722 C92.5121041,121.753045 91.5650405,121.384541 90.6395972,120.969048 C90.4196136,120.870086 90.191768,120.787743 89.9648295,120.704946 C88.784175,120.274043 87.5823536,119.909013 86.3694953,119.582209 C85.856956,119.444115 85.333531,119.346965 84.8157001,119.228512 C83.8258492,119.001728 82.8228447,118.846863 81.8222593,118.679306 C81.5371121,118.631713 81.2401719,118.650599 80.9563854,118.59787 C80.1446382,118.447235 79.3170158,118.488028 78.5022448,118.375014 C78.2402299,118.338753 77.9712602,118.345854 77.7053143,118.345099 L76.7259713,118.345269 L76.7259713,118.345269 L75.7466282,118.352351 C75.5295172,118.35492 75.3125574,118.378943 75.0957487,118.39526 C74.9031308,118.409463 74.7108151,118.439982 74.5183484,118.440285 C73.7418287,118.442098 72.9761949,118.557227 72.2099563,118.657398 C71.3717505,118.767088 70.5365686,118.900499 69.7273916,119.159162 C69.6127885,119.195877 69.4918352,119.207964 69.3460866,119.125923 C69.2568836,118.982238 69.2615706,118.85759 69.2981589,118.744878 C69.3649856,118.539096 69.432417,118.32863 69.5362855,118.140525 C69.5579059,118.101394 69.5807358,118.06347 69.6034146,118.025245 C69.7413012,117.773985 69.917137,117.539799 70.1309218,117.322987 C70.2790895,117.168273 70.4422251,117.025947 70.6235037,116.898127 C70.6436122,116.883925 70.6644766,116.870931 70.6847363,116.85688 C70.9009402,116.703525 71.1404275,116.561653 71.4016865,116.430509 C71.7530555,116.250412 72.1186366,116.099777 72.4987321,115.971956 C73.8396496,115.520353 75.219121,115.315326 76.6256557,115.253985 C76.7464577,115.248545 76.8687716,115.252172 76.9877594,115.234343 Z M101.728724,109.312727 C102.57464,109.220412 103.353277,109.456563 104.105454,109.807087 C104.278871,109.887919 104.440344,109.998516 104.597129,110.109717 C105.907657,111.039363 106.560502,112.322706 106.632167,113.914572 C106.635191,113.984526 106.610093,114.05584 106.601475,114.107059 C106.519983,114.25165 106.398425,114.276429 106.281856,114.231404 C104.93217,113.709092 103.532136,113.340437 102.163853,112.875085 C101.708464,112.720069 101.232513,112.627149 100.771077,112.488601 C99.9862416,112.252904 99.1995921,112.025969 98.3929854,111.875032 C98.3619407,111.86924 98.3314336,111.860528 98.3012121,111.850315 L98.1212942,111.782415 C98.0133435,111.631478 98.0144018,111.532364 98.0688308,111.449719 C98.1707339,111.295306 98.2809525,111.150715 98.3954044,111.010958 C98.6587801,110.677658 98.9685715,110.38364 99.3196382,110.138726 C99.3321871,110.129812 99.344736,110.120746 99.3574361,110.111983 C99.4027935,110.080859 99.4489069,110.051246 99.4954739,110.022086 C99.75129,109.855738 100.023435,109.709635 100.316746,109.589822 C100.674768,109.443569 101.0532,109.363341 101.439797,109.330555 C101.535955,109.322396 101.632868,109.323152 101.728724,109.312727 Z" id="Fill-5"></path>
            </g>
        </g>
    </g>
</svg>