<?xml version="1.0" encoding="UTF-8"?>
<svg width="18px" height="18px" viewBox="0 0 18 18" version="1.1" xmlns="http://www.w3.org/2000/svg" xmlns:xlink="http://www.w3.org/1999/xlink">
    <!-- Generator: Sketch 60.1 (88133) - https://sketch.com -->
    <title>Group 2</title>
    <desc>Created with Sketch.</desc>
    <g id="MobileFIN" stroke="none" stroke-width="1" fill="none" fill-rule="evenodd">
        <g id="menu" transform="translate(-30.000000, -587.000000)" stroke="#2A2A2A">
            <g id="Group" transform="translate(30.000000, 572.000000)">
                <g id="Group-2" transform="translate(-0.000000, 15.000000)">
                    <path d="M10.5945356,0.5 L7.40561249,0.5 L7.02137315,3.06234894 L6.75008064,3.16706885 C6.65467066,3.20389746 6.56021992,3.2430673 6.46680372,3.28453754 L6.20076559,3.4026398 L4.11698376,1.86220096 L1.86220096,4.11698376 L3.4026398,6.20076559 L3.28453754,6.46680372 C3.2430673,6.56021992 3.20389746,6.65467066 3.16706885,6.75008064 L3.06234894,7.02137315 L0.5,7.40561249 L0.5,10.5945356 L3.06272221,10.9797224 L3.16742518,11.2508423 C3.20415009,11.3459385 3.24320103,11.4400813 3.28453754,11.5331963 L3.4026398,11.7992344 L1.86220096,13.8830162 L4.11698376,16.137799 L6.20076559,14.5973602 L6.46680372,14.7154625 C6.56021992,14.7569327 6.65467066,14.7961025 6.75008064,14.8329311 L7.02137315,14.9376511 L7.40561249,17.5 L10.5945356,17.5 L10.9797224,14.9372778 L11.2508423,14.8325748 C11.3459385,14.7958499 11.4400813,14.756799 11.5331963,14.7154625 L11.7992344,14.5973602 L13.8830162,16.137799 L16.137799,13.8830162 L14.5973602,11.7992344 L14.7154625,11.5331963 C14.756799,11.4400813 14.7958499,11.3459385 14.8325748,11.2508423 L14.9372778,10.9797224 L17.5,10.5945356 L17.5,7.40561249 L14.9376511,7.02137315 L14.8329311,6.75008064 C14.7961025,6.65467066 14.7569327,6.56021992 14.7154625,6.46680372 L14.5973602,6.20076559 L16.137799,4.11698376 L13.8830162,1.86220096 L11.7992344,3.4026398 L11.5331963,3.28453754 C11.4400813,3.24320103 11.3459385,3.20415009 11.2508423,3.16742518 L10.9797224,3.06272221 L10.5945356,0.5 Z" id="Combined-Shape"></path>
                    <circle id="Oval" cx="9" cy="9" r="2.875"></circle>
                </g>
            </g>
        </g>
    </g>
</svg>