<?xml version="1.0" encoding="UTF-8"?>
<svg width="200px" height="55px" viewBox="0 0 200 55" version="1.1" xmlns="http://www.w3.org/2000/svg" xmlns:xlink="http://www.w3.org/1999/xlink">
    <!-- Generator: Sketch 60.1 (88133) - https://sketch.com -->
    <title>Group 2</title>
    <desc>Created with Sketch.</desc>
    <g id="MobileFIN" stroke="none" stroke-width="1" fill="none" fill-rule="evenodd">
        <g id="open_screen" transform="translate(-88.000000, -342.000000)" fill="#2F5344">
            <g id="Group-3" transform="translate(88.000000, 136.000000)">
                <g id="Group" transform="translate(0.000000, 206.000000)">
                    <g id="Group-2">
                        <g id="Group-36" transform="translate(0.000000, -0.000000)">
                            <path d="M97.7976156,14.430654 L97.7894157,14.430654 L97.7894157,11.0822105 C97.7894157,6.00174352 93.6367682,1.88299545 88.5144863,1.88299545 L60.4442875,1.88299545 C59.0684667,1.88299545 58.7867427,0.457409021 58.7867427,0.457409021 L54.7550432,0.457409021 L54.7550432,10.6314139 C54.7550432,12.5632752 55.2435211,14.5927316 58.619524,14.5927316 L90.9753253,14.5927316 C90.9741539,14.5953458 90.9723968,14.5999932 90.9723968,14.5999932 L92.9769717,14.5999932 C93.9316706,14.5999932 94.9136048,15.3700074 94.8222349,16.7110694 C94.052033,24.6331241 89.7796088,34.6775829 89.7796088,34.6775829 L89.7801945,34.6784543 C89.7801945,34.6787448 89.7796088,34.6796162 89.7796088,34.6796162 C89.7796088,34.6796162 94.5756531,46.5226144 94.5756531,54.6360834 L96.1661347,54.6360834 L96.2642403,54.6360834 L97.4321358,54.6360834 C97.4321358,46.5226144 102.59366,34.6796162 102.59366,34.6796162 L102.593074,34.6787448 L102.59366,34.6775829 C102.59366,34.6775829 97.7976156,22.5444134 97.7976156,14.430654" id="Fill-1"></path>
                            <path d="M129.674821,11.024394 C129.674821,5.97171125 125.534004,1.875488 120.426315,1.875488 L112.877647,1.875488 C111.505454,1.875488 111.224532,0.457409021 111.224532,0.457409021 L107.204611,0.457409021 L107.204611,10.5760626 C107.204611,12.4973589 107.691405,14.5154277 111.05779,14.5154277 L122.98527,14.5154277 C122.984102,14.5183164 122.982642,14.5226495 122.982642,14.5226495 L124.981214,14.5226495 C125.96035,14.5226495 126.834652,15.0590872 126.834652,16.4918987 L126.834652,22.9357952 L129.682997,22.9357952 L129.682997,14.3545252 L129.674821,14.3545252 L129.674821,11.024394 Z" id="Fill-3"></path>
                            <path d="M45.9288267,14.430654 L45.9206344,14.430654 L45.9206344,11.0822105 C45.9206344,6.00174352 41.7718052,1.88299545 36.6542331,1.88299545 L5.68401305,1.88299545 C4.30945736,1.88299545 4.02799236,0.457409021 4.02799236,0.457409021 L0,0.457409021 L0,10.6314139 C0,12.5632752 0.488028711,14.5927316 3.86092738,14.5927316 L39.1128094,14.5927316 C39.1116391,14.5953458 39.1098836,14.5999932 39.1098836,14.5999932 L41.1126153,14.5999932 C42.0664364,14.5999932 43.0474677,15.3700074 42.9561818,16.7110694 C42.1866881,24.6331241 37.9181924,34.6775829 37.9181924,34.6775829 L37.9187775,34.6784543 C37.9187775,34.6787448 37.9181924,34.6796162 37.9181924,34.6796162 C37.9181924,34.6796162 42.7098268,46.5226144 42.7098268,54.6360834 L44.2991385,54.6360834 L44.3968613,54.6360834 L45.5636829,54.6360834 C45.5636829,46.5226144 50.7204611,34.6796162 50.7204611,34.6796162 L50.7198759,34.6787448 L50.7204611,34.6775829 C50.7204611,34.6775829 45.9288267,22.5444134 45.9288267,14.430654" id="Fill-6"></path>
                            <path d="M7.57265746,25.2990922 L4.74609612,25.2412707 C3.36005523,30.419925 0,34.6705301 0,34.6705301 L0.000869354522,34.6716924 C0.000869354522,34.6716924 0,34.6728546 0,34.6728546 C0,34.6728546 4.74609612,46.5195749 4.74609612,54.6360834 L7.57265746,54.6360834 C7.57265746,46.5195749 12.6801153,34.6728546 12.6801153,34.6728546 L12.6795357,34.6716924 L12.6801153,34.6705301 C12.6801153,34.6705301 8.85669409,30.4515961 7.57265746,25.2990922" id="Fill-9"></path>
                            <path d="M200,11.0885996 C200,6.00521646 195.877261,1.88410433 190.791871,1.88410433 L187.927759,1.88410433 C186.561847,1.88410433 186.282152,0.457409021 186.282152,0.457409021 L182.279781,0.457409021 L182.279781,10.6375441 C182.279781,12.5705143 182.76445,14.600845 186.116138,14.600845 L193.548117,14.600845 C193.546663,14.6037513 193.544918,14.6081107 193.544918,14.6081107 L195.535056,14.6081107 C196.509918,14.6081107 197.360051,15.1315326 197.360051,16.8349063 C197.360051,16.8895444 197.361505,16.9392419 197.364703,16.9848706 L197.364703,19.6510964 C197.364703,31.9275349 187.408782,41.8795266 175.127497,41.8795266 L171.929612,41.8795266 L171.929612,16.8349063 C171.929612,15.2765562 172.889646,14.600845 173.864508,14.600845 L175.854645,14.600845 L177.736045,14.600845 L177.736045,11.0885996 C177.736045,6.00521646 173.613597,1.88410433 168.527916,1.88410433 L165.664095,1.88410433 C164.298183,1.88410433 164.018488,0.457409021 164.018488,0.457409021 L160.016116,0.457409021 L160.016116,10.6375441 C160.016116,12.5705143 160.500785,14.600845 163.852473,14.600845 L165.170994,14.600845 L167.161132,14.600845 C168.12262,14.600845 169.067826,15.2599904 169.093411,16.773293 L169.093411,41.7664721 C157.871013,40.6367992 149.110628,31.1669601 149.110628,19.6510964 L149.110628,17.0610152 C149.118187,16.9959144 149.12313,16.9229667 149.12313,16.8349063 C149.12313,15.1315326 149.973263,14.6081107 150.948125,14.6081107 L152.937972,14.6081107 C152.937972,14.6081107 152.936228,14.6037513 152.935355,14.600845 L155.472381,14.600845 L155.472381,11.0885996 C155.472381,6.00521646 151.349642,1.88410433 146.264251,1.88410433 L143.40043,1.88410433 C142.034228,1.88410433 141.754533,0.457409021 141.754533,0.457409021 L137.752161,0.457409021 L137.752161,10.6375441 C137.752161,12.5705143 138.23683,14.600845 141.588519,14.600845 L142.650894,14.600845 C142.649731,14.6037513 142.647987,14.6081107 142.647987,14.6081107 L144.637834,14.6081107 C145.612987,14.6081107 146.462829,15.035044 146.462829,16.8349063 C146.462829,16.9261636 146.467772,17.0025989 146.475331,17.070606 L146.475331,29.7733964 C146.475331,43.5047212 157.611088,54.6360834 171.347834,54.6360834 L175.127497,54.6360834 C188.864243,54.6360834 200,43.5047212 200,29.7733964 L200,14.6967524 L199.899403,14.600845 L200,14.600845 L200,11.0885996 Z" id="Fill-12"></path>
                        </g>
                    </g>
                </g>
            </g>
        </g>
    </g>
</svg>