<?xml version="1.0" encoding="UTF-8"?>
<svg width="16px" height="20px" viewBox="0 0 16 20" version="1.1" xmlns="http://www.w3.org/2000/svg" xmlns:xlink="http://www.w3.org/1999/xlink">
    <!-- Generator: Sketch 60.1 (88133) - https://sketch.com -->
    <title>Group 31 Copy</title>
    <desc>Created with Sketch.</desc>
    <g id="MobileFIN" stroke="none" stroke-width="1" fill="none" fill-rule="evenodd">
        <g id="all_poems_sorting_favorite-copy-3" transform="translate(-306.000000, -1236.000000)" stroke="#F87A64" stroke-width="2">
            <g id="Group-27" transform="translate(12.000000, 1160.000000)">
                <g id="Group-21" transform="translate(17.000000, 64.000000)">
                    <g id="Group-31-Copy" transform="translate(277.000000, 13.000000)">
                        <path d="M2.13340962,4 L3.89122212,18 L12.1757422,18 L13.9335547,4 L2.13340962,4 Z" id="Rectangle-Copy-33"></path>
                        <path d="M11,0 L11,1 C11,2.1045695 10.2324881,3 9.28571429,3 L6.71428571,3 C5.76751186,3 5,2.1045695 5,1 L5,0" id="Rectangle-Copy-34" transform="translate(8.000000, 1.500000) scale(1, -1) translate(-8.000000, -1.500000) "></path>
                        <line x1="13" y1="10" x2="5.5" y2="10" id="Path-14-Copy-5" transform="translate(9.500000, 10.000000) rotate(-90.000000) translate(-9.500000, -10.000000) "></line>
                        <line x1="10" y1="10" x2="2.5" y2="10" id="Path-14-Copy-6" transform="translate(6.500000, 10.000000) rotate(-90.000000) translate(-6.500000, -10.000000) "></line>
                        <line x1="16" y1="3.5" x2="-2.48689958e-14" y2="3.5" id="Path-14-Copy-7"></line>
                    </g>
                </g>
            </g>
        </g>
    </g>
</svg>